<svg xmlns="http://www.w3.org/2000/svg" xmlns:xlink="http://www.w3.org/1999/xlink" width="100.0" height="100.0" viewBox="-161.04307880352 61.789025211480045 1.5453360500400208 0.6927566180400362" preserveAspectRatio="xMinYMin meet"><g transform="matrix(1,0,0,-1,0,124.27080704100013)"><g><path fill-rule="evenodd" fill="#66cc99" stroke="#555555" stroke-width="0.030906721000800417" opacity="0.6" d="M -159.66546631399999,62.041046143000074 L -159.68766785299997,62.03189849900008 L -159.68962097699998,62.03110885600006 L -159.72158814099998,62.02128982600004 L -159.74208069399998,62.01657867400007 L -159.76249695399997,62.012706757000046 L -159.76594543999997,62.01251983700007 L -159.76869202299997,62.011837006000064 L -159.78146362899997,62.01017761300005 L -159.78723145199996,62.00991821300005 L -159.80944824799997,62.00781631500007 L -159.82937622599997,62.00701522900005 L -159.83709717399998,62.00370407200006 L -159.83932495699997,62.00309372000004 L -159.84107971899996,62.002048493000075 L -159.86259460999997,61.99616241500007 L -159.86151123799996,61.98214340200008 L -159.86172485899996,61.98100662300004 L -159.86285401099997,61.975444794000055 L -159.86723328299996,61.963871002000076 L -159.87004089999996,61.95887756400003 L -159.88169861599997,61.94449234100006 L -159.89511109099996,61.93429184000007 L -159.90122986599997,61.93040847900005 L -159.90773010999996,61.92712402400008 L -159.90966797499996,61.92566299500004 L -159.93414307199998,61.91041183500005 L -159.94259644299999,61.90616989100005 L -159.94638062199996,61.90367126500007 L -159.96806336099996,61.89313125600006 L -159.97842407899998,61.88853454600007 L -160.00791931799998,61.87917328000003 L -160.02842713099997,61.87418747000004 L -160.05093384499997,61.86974334700005 L -160.07391358099997,61.86709594800004 L -160.08831787799997,61.86598587100008 L -160.12452698499996,61.86524200500003 L -160.15374756599996,61.86763763500005 L -160.16860962599998,61.86957168600003 L -160.17633057399996,61.87097549500004 L -160.18104553999999,61.87145996100003 L -160.19697571499998,61.87423706100003 L -160.21279907899998,61.87748718300003 L -160.23420716099997,61.88365936300005 L -160.26087952499998,61.88530349700005 L -160.26701355699998,61.885879517000035 L -160.28932190799998,61.88338089100006 L -160.29338074499998,61.88322830300007 L -160.30308533499996,61.88215255800003 L -160.33192444699998,61.88021087700008 L -160.33859253699998,61.880100251000044 L -160.34359741999998,61.87963485800003 L -160.42370606199998,61.877136231000065 L -160.44464112199998,61.87715530500003 L -160.45999146299997,61.87769317700008 L -160.46824646799996,61.877517700000055 L -160.50236512199996,61.87487411500007 L -160.50848389499998,61.87473678600003 L -160.51423645899996,61.87417602600004 L -160.53581238699996,61.87330627500006 L -160.58226014099998,61.86971283000008 L -160.61712647399997,61.86584472700008 L -160.62014771299997,61.86572647200006 L -160.62733460299998,61.86487960900007 L -160.65589905699997,61.86265564000007 L -160.66680909099998,61.86240768500005 L -160.67413330999997,61.861759187000075 L -160.68914795899997,61.861446381000064 L -160.70532227399997,61.85980987600004 L -160.71374512699998,61.85942840600006 L -160.74803162599997,61.85319137600004 L -160.75097657099997,61.852981568000075 L -160.75384522499996,61.85219955500003 L -160.77827454599998,61.849311829000044 L -160.80680848199998,61.84709930500003 L -160.84146119099998,61.84628677400008 L -160.84422303099998,61.84638214200004 L -160.88023377499997,61.84780120900007 L -160.88461304799998,61.84836959900008 L -160.91392517999998,61.85113525400004 L -160.91598511799998,61.85046386800008 L -160.92736805999996,61.84625988000005 L -160.95586199999997,61.92253000000005 L -160.98584413499998,62.01059687000003 L -160.98110962899997,62.011047364000035 L -160.96511841799997,62.02109146200007 L -160.96006775899997,62.022472382000046 L -160.95701600099997,62.024227143000076 L -160.93844605499996,62.030746461000035 L -160.89627076199997,62.04136276300005 L -160.87155152299997,62.04427719100005 L -160.85707093199997,62.04539489800004 L -160.82234192799996,62.046195985000054 L -160.79559327099997,62.044265747000054 L -160.77388001299997,62.04175567700008 L -160.76721192199997,62.040615082000045 L -160.76013184599998,62.04224014400006 L -160.72724915399996,62.045646668000074 L -160.69969178199997,62.04703903300003 L -160.67309571199996,62.04729080200008 L -160.65974427199998,62.04659652700008 L -160.63691712299996,62.04492569000007 L -160.62434388099996,62.043048859000066 L -160.60430908999996,62.04326629700006 L -160.59040833399996,62.043117523000035 L -160.53251648799997,62.03574752900005 L -160.48666382599998,62.04011917200006 L -160.47412110099998,62.04051590000006 L -160.46228028199997,62.04154968300003 L -160.44891358299998,62.04182434100005 L -160.43144226999996,62.04171371500007 L -160.42614746799998,62.04103469900008 L -160.42158509099997,62.04123687800006 L -160.38676453399998,62.03900909400005 L -160.38417054099997,62.03863143900003 L -160.37402344499998,62.03793335000006 L -160.36347962199997,62.03682327300004 L -160.35980225399996,62.03620910700005 L -160.31816101799998,62.04080963200005 L -160.30599976399998,62.04126358100007 L -160.29013062199996,62.04264450100004 L -160.27703858199996,62.042926789000035 L -160.25881958799997,62.04280853300003 L -160.23345947999996,62.04092407300004 L -160.22232056399997,62.03964233500005 L -160.21559143799996,62.039642334000064 L -160.20797730199996,62.04030990700005 L -160.20436096899996,62.05062103300003 L -160.20159912899996,62.05562973000008 L -160.19305420699996,62.06628418000008 L -160.19203186799996,62.068119050000064 L -160.17430115499997,62.08590698200004 L -160.17230225399996,62.087841034000064 L -160.15902710799998,62.09799575900007 L -160.15292359099996,62.10189437900004 L -160.13569641799998,62.11061859200004 L -160.13278198899997,62.11241531400003 L -160.12500000799997,62.115753174000076 L -160.12297058699997,62.11631012000004 L -160.12139893299997,62.11725616500007 L -160.06900024999996,62.13108444200003 L -160.04322815599997,62.13377761900006 L -160.03843689699997,62.13614654600008 L -160.03596497199996,62.13766861000005 L -160.02818299099997,62.14101028500005 L -160.02603150199997,62.14159774800004 L -160.02433777599998,62.142601013000046 L -160.00622559199996,62.14885330200008 L -159.99678040299997,62.15163803100006 L -159.96241760899997,62.15917205900007 L -159.95892334699997,62.15936660800003 L -159.95616150599997,62.16005706800007 L -159.94490051899996,62.16152572700008 L -159.95744324399996,62.162586213000054 L -159.97966004099996,62.166076661000034 L -159.99226379999996,62.16755676300005 L -160.00170898999997,62.169498444000055 L -160.00404358499998,62.17030715900006 L -160.00741577799997,62.17073822100008 L -160.01710510999996,62.17295074500004 L -160.03894043599996,62.17902755800003 L -160.05558777599998,62.18457031300005 L -160.07330322899998,62.192131043000074 L -160.07879639299998,62.19405746500007 L -160.08602905999996,62.19766998300008 L -160.08764649199998,62.19894790700005 L -160.09045410899998,62.199974061000034 L -160.10493469899998,62.209247590000075 L -160.10720825799996,62.21097946200007 L -160.11384583199998,62.21356582700008 L -160.12657166299996,62.21943283100006 L -160.12858582199996,62.22014618000003 L -160.14276123699997,62.22734832800006 L -160.14398194099996,62.22832489000007 L -160.14605713499998,62.22908401500007 L -160.16540528099998,62.24371338000003 L -160.18260193499998,62.25655746500007 L -160.18826294699997,62.262195587000065 L -160.19285584199997,62.26557922400008 L -160.19760132599998,62.270580292000034 L -160.20307923199996,62.27719497700008 L -160.21073914299998,62.296745301000044 L -160.21131897699996,62.30312347500006 L -160.21102905899997,62.31152343800005 L -160.21080017899996,62.31280136100008 L -160.20970154599996,62.31836319000007 L -160.20552063699998,62.32962036200007 L -160.20277405499996,62.334629059000065 L -160.19645691499997,62.342449188000046 L -160.19012451999998,62.35369110200003 L -160.18911743899997,62.35882949900008 L -160.18562317599998,62.36815643400007 L -160.19021607099998,62.37276458700006 L -160.19787598399998,62.392177582000045 L -160.19797325899998,62.39316623500008 L -160.04846944399998,62.40476388900004 L -159.80639783499998,62.42454716100008 L -159.80224609899997,62.417354584000066 L -159.80195618299996,62.41589355500008 L -159.79869080199998,62.40942764300007 L -159.79652405299998,62.402755737000064 L -159.79618836099996,62.39817810000005 L -159.79490662299997,62.39485550000006 L -159.79440308099998,62.38874435400004 L -159.79478455199998,62.38010788000008 L -159.79505920899996,62.37868499800004 L -159.79676819499997,62.370796204000044 L -159.79502869299998,62.36862564100005 L -159.79447937499998,62.36645507900005 L -159.79261780399997,62.364788056000066 L -159.78930664699996,62.35894775400004 L -159.78901672899997,62.35737609900008 L -159.78587341899998,62.35111236600005 L -159.78367615299996,62.34416580300007 L -159.78253174399998,62.32787323100007 L -159.78752136899996,62.31469345100004 L -159.73233032899998,62.30816650400004 L -159.71313476999998,62.303993225000056 L -159.71090698899997,62.30320358300003 L -159.70794678199996,62.30281066900005 L -159.68482971699999,62.29601669400006 L -159.67620850099996,62.29295730600006 L -159.65995789099998,62.28576660200008 L -159.65600586499997,62.28435897800006 L -159.62043762799996,62.26627349900008 L -159.61895752499998,62.265090943000075 L -159.61642456599998,62.264148713000054 L -159.60244751599998,62.25511932400008 L -159.59796143099996,62.25168609600007 L -159.57301331199997,62.23262405400004 L -159.56832886299998,62.22734069900008 L -159.56393433199997,62.22171783500005 L -159.55842590799998,62.21075820900006 L -159.55622864199998,62.20409011900006 L -159.55497742199998,62.187068940000074 L -159.55528259899998,62.18558883700007 L -159.55784607399997,62.174209595000036 L -159.56251526499997,62.16261673000008 L -159.56838989699997,62.15261840900007 L -159.57429504899997,62.145542145000036 L -159.57516479999998,62.144004822000056 L -159.57723999699996,62.14147949200003 L -159.58406067499996,62.13315200800008 L -159.58499145999997,62.12998581000005 L -159.58563233099997,62.128440857000044 L -159.58633423399996,62.126609803000065 L -159.59341431199996,62.11688232500006 L -159.59724426799997,62.10671615600006 L -159.59770203199997,62.10549545300006 L -159.60157776499997,62.09535598800005 L -159.60717773899998,62.085361481000064 L -159.61764526899998,62.07257080100004 L -159.61827087999998,62.07151413000008 L -159.62298584599998,62.067073823000044 L -159.63716125999997,62.05622100900007 L -159.64331055299996,62.052333832000045 L -159.66358948399997,62.04217529300007 L -159.66546631399999,62.041046143000074 z" /></g></g></svg>